<mxfile host="app.diagrams.net" agent="Mozilla/5.0 (Windows NT 10.0; Win64; x64) AppleWebKit/537.36 (KHTML, like Gecko) Chrome/132.0.0.0 Safari/537.36 OPR/117.0.0.0" version="26.2.14">
  <diagram name="Page-1" id="929967ad-93f9-6ef4-fab6-5d389245f69c">
    <mxGraphModel dx="1629" dy="900" grid="1" gridSize="10" guides="1" tooltips="1" connect="1" arrows="1" fold="1" page="1" pageScale="1.5" pageWidth="1169" pageHeight="826" background="none" math="0" shadow="0">
      <root>
        <mxCell id="0" style=";html=1;" />
        <mxCell id="1" style=";html=1;" parent="0" />
        <mxCell id="1672d66443f91eb5-1" value="&lt;p style=&quot;margin: 0px ; margin-top: 4px ; margin-left: 10px ; text-align: left&quot;&gt;&lt;b&gt;req&lt;/b&gt;&amp;nbsp;ReqDiagram&lt;/p&gt;" style="html=1;strokeWidth=1;shape=mxgraph.sysml.package;html=1;overflow=fill;whiteSpace=wrap;fillColor=none;gradientColor=none;fontSize=12;align=center;labelX=327.64;" parent="1" vertex="1">
          <mxGeometry x="290" y="130" width="960" height="815" as="geometry" />
        </mxCell>
        <mxCell id="AqPOnKideAfWSkeXZtjB-1" value="&lt;p style=&quot;margin: 0px ; margin-top: 4px ; text-align: center&quot;&gt;&amp;lt;&amp;lt;requirement&amp;gt;&amp;gt;&lt;br&gt;&lt;b&gt;Alert Speed limit violation&lt;/b&gt;&lt;/p&gt;&lt;hr&gt;&lt;p style=&quot;margin: 0px ; margin-left: 8px ; text-align: left&quot;&gt;Id = &quot;SPD-1&quot;&lt;/p&gt;&lt;p style=&quot;margin: 0px ; margin-left: 8px ; text-align: left&quot;&gt;text = &quot;The system shall alert the user if his speed is higher than the speed limit&quot;&lt;/p&gt;" style="shape=rect;html=1;overflow=fill;whiteSpace=wrap;" parent="1" vertex="1">
          <mxGeometry x="660" y="340" width="290" height="130" as="geometry" />
        </mxCell>
        <mxCell id="AqPOnKideAfWSkeXZtjB-2" style="edgeStyle=orthogonalEdgeStyle;rounded=0;html=1;endArrow=circlePlus;endFill=0;jettySize=auto;orthogonalLoop=1;exitX=0.5;exitY=0;exitDx=0;exitDy=0;" parent="1" edge="1">
          <mxGeometry relative="1" as="geometry">
            <Array as="points">
              <mxPoint x="800" y="565" />
            </Array>
            <mxPoint x="807" y="565" as="sourcePoint" />
            <mxPoint x="800" y="470" as="targetPoint" />
          </mxGeometry>
        </mxCell>
        <mxCell id="AqPOnKideAfWSkeXZtjB-4" value="&lt;p style=&quot;margin: 0px ; margin-top: 4px ; text-align: center&quot;&gt;&amp;lt;&amp;lt;requirement&amp;gt;&amp;gt;&lt;br&gt;&lt;b&gt;Detect current car speed&lt;/b&gt;&lt;/p&gt;&lt;hr&gt;&lt;p style=&quot;margin: 0px ; margin-left: 8px ; text-align: left&quot;&gt;Id = &quot;SPD-1.1&quot;&lt;/p&gt;&lt;p style=&quot;margin: 0px ; margin-left: 8px ; text-align: left&quot;&gt;text=&quot;The system shall detect the current speed of the car.&quot;&lt;/p&gt;" style="shape=rect;html=1;overflow=fill;whiteSpace=wrap;" parent="1" vertex="1">
          <mxGeometry x="490" y="560" width="200" height="120" as="geometry" />
        </mxCell>
        <mxCell id="AqPOnKideAfWSkeXZtjB-5" value="&lt;p style=&quot;margin: 0px ; margin-top: 4px ; text-align: center&quot;&gt;&amp;lt;&amp;lt;requirement&amp;gt;&amp;gt;&lt;br&gt;&lt;b&gt;Get speed limit&lt;/b&gt;&lt;/p&gt;&lt;hr&gt;&lt;p style=&quot;margin: 0px ; margin-left: 8px ; text-align: left&quot;&gt;Id = &quot;SPD-1.2&quot;&lt;/p&gt;&lt;p style=&quot;margin: 0px ; margin-left: 8px ; text-align: left&quot;&gt;text=&quot;The system shall retrieve the current speed limit for the road the user is at.&quot;&lt;/p&gt;" style="shape=rect;html=1;overflow=fill;whiteSpace=wrap;" parent="1" vertex="1">
          <mxGeometry x="720" y="560" width="200" height="120" as="geometry" />
        </mxCell>
        <mxCell id="AqPOnKideAfWSkeXZtjB-6" value="&lt;p style=&quot;margin: 0px ; margin-top: 4px ; text-align: center&quot;&gt;&amp;lt;&amp;lt;requirement&amp;gt;&amp;gt;&lt;br&gt;&lt;b&gt;Compare car speed with limit&lt;/b&gt;&lt;/p&gt;&lt;hr&gt;&lt;p style=&quot;margin: 0px ; margin-left: 8px ; text-align: left&quot;&gt;Id = &quot;SPD-1.3&quot;&lt;/p&gt;&lt;p style=&quot;margin: 0px ; margin-left: 8px ; text-align: left&quot;&gt;text=&quot;The system shall compare the speed limit of the road with the current speed of the car.&quot;&lt;/p&gt;" style="shape=rect;html=1;overflow=fill;whiteSpace=wrap;" parent="1" vertex="1">
          <mxGeometry x="600" y="760" width="210" height="120" as="geometry" />
        </mxCell>
        <mxCell id="AqPOnKideAfWSkeXZtjB-7" value="" style="endArrow=none;html=1;rounded=0;exitX=0.5;exitY=0;exitDx=0;exitDy=0;" parent="1" source="AqPOnKideAfWSkeXZtjB-4" edge="1">
          <mxGeometry width="50" height="50" relative="1" as="geometry">
            <mxPoint x="580" y="560" as="sourcePoint" />
            <mxPoint x="800" y="510" as="targetPoint" />
            <Array as="points">
              <mxPoint x="590" y="510" />
            </Array>
          </mxGeometry>
        </mxCell>
        <mxCell id="AqPOnKideAfWSkeXZtjB-13" value="&amp;lt;&amp;lt;deriveReq&amp;gt;&amp;gt;" style="endArrow=open;html=1;edgeStyle=none;endSize=12;dashed=1;rounded=0;entryX=0.5;entryY=1;entryDx=0;entryDy=0;exitX=0.5;exitY=0;exitDx=0;exitDy=0;" parent="1" source="AqPOnKideAfWSkeXZtjB-6" target="AqPOnKideAfWSkeXZtjB-4" edge="1">
          <mxGeometry relative="1" as="geometry">
            <mxPoint x="620" y="510" as="targetPoint" />
            <mxPoint x="620" y="590" as="sourcePoint" />
          </mxGeometry>
        </mxCell>
        <mxCell id="AqPOnKideAfWSkeXZtjB-14" value="&amp;lt;&amp;lt;deriveReq&amp;gt;&amp;gt;" style="endArrow=open;html=1;edgeStyle=none;endSize=12;dashed=1;rounded=0;entryX=0.5;entryY=1;entryDx=0;entryDy=0;exitX=0.5;exitY=0;exitDx=0;exitDy=0;" parent="1" source="AqPOnKideAfWSkeXZtjB-6" target="AqPOnKideAfWSkeXZtjB-5" edge="1">
          <mxGeometry relative="1" as="geometry">
            <mxPoint x="630" y="520" as="targetPoint" />
            <mxPoint x="630" y="600" as="sourcePoint" />
          </mxGeometry>
        </mxCell>
        <mxCell id="AqPOnKideAfWSkeXZtjB-15" value="&lt;p style=&quot;margin: 0px ; margin-top: 4px ; text-align: center&quot;&gt;&amp;lt;&amp;lt;requirement&amp;gt;&amp;gt;&lt;br&gt;&lt;b&gt;Trigger the Alert&lt;/b&gt;&lt;/p&gt;&lt;hr&gt;&lt;p style=&quot;margin: 0px ; margin-left: 8px ; text-align: left&quot;&gt;Id = &quot;SPD-1.4&quot;&lt;/p&gt;&lt;p style=&quot;margin: 0px ; margin-left: 8px ; text-align: left&quot;&gt;text=&quot;The system shall send the alert to the user if their current speed is over the speed limit.&quot;&lt;/p&gt;" style="shape=rect;html=1;overflow=fill;whiteSpace=wrap;" parent="1" vertex="1">
          <mxGeometry x="950" y="760" width="200" height="120" as="geometry" />
        </mxCell>
        <mxCell id="AqPOnKideAfWSkeXZtjB-16" value="&amp;lt;&amp;lt;deriveReq&amp;gt;&amp;gt;" style="endArrow=open;html=1;edgeStyle=none;endSize=12;dashed=1;rounded=0;entryX=1;entryY=0.5;entryDx=0;entryDy=0;exitX=0;exitY=0.5;exitDx=0;exitDy=0;" parent="1" source="AqPOnKideAfWSkeXZtjB-15" target="AqPOnKideAfWSkeXZtjB-6" edge="1">
          <mxGeometry relative="1" as="geometry">
            <mxPoint x="830" y="690" as="targetPoint" />
            <mxPoint x="715" y="770" as="sourcePoint" />
          </mxGeometry>
        </mxCell>
        <mxCell id="AqPOnKideAfWSkeXZtjB-17" value="" style="fontStyle=1;align=center;verticalAlign=middle;childLayout=stackLayout;horizontal=1;horizontalStack=0;resizeParent=1;resizeParentMax=0;resizeLast=0;marginBottom=0;" parent="1" vertex="1">
          <mxGeometry x="720" y="180" width="170" height="120" as="geometry" />
        </mxCell>
        <mxCell id="AqPOnKideAfWSkeXZtjB-18" value="&amp;lt;&amp;lt;NF requirement&amp;gt;&amp;gt;" style="html=1;align=center;spacing=0;verticalAlign=middle;strokeColor=none;fillColor=none;whiteSpace=wrap;spacingTop=3;" parent="AqPOnKideAfWSkeXZtjB-17" vertex="1">
          <mxGeometry width="170" height="16" as="geometry" />
        </mxCell>
        <mxCell id="AqPOnKideAfWSkeXZtjB-19" value="Performance" style="html=1;align=center;spacing=0;verticalAlign=middle;strokeColor=none;fillColor=none;whiteSpace=wrap;fontStyle=1" parent="AqPOnKideAfWSkeXZtjB-17" vertex="1">
          <mxGeometry y="16" width="170" height="18" as="geometry" />
        </mxCell>
        <mxCell id="AqPOnKideAfWSkeXZtjB-20" value="" style="line;strokeWidth=0.25;fillColor=none;align=left;verticalAlign=middle;spacingTop=-1;spacingLeft=3;spacingRight=3;rotatable=0;labelPosition=right;points=[];portConstraint=eastwest;" parent="AqPOnKideAfWSkeXZtjB-17" vertex="1">
          <mxGeometry y="34" width="170" height="8" as="geometry" />
        </mxCell>
        <mxCell id="AqPOnKideAfWSkeXZtjB-21" value="Id=&quot;SPD-NF-2&quot;" style="html=1;align=left;spacing=0;verticalAlign=middle;strokeColor=none;fillColor=none;whiteSpace=wrap;spacingLeft=10;" parent="AqPOnKideAfWSkeXZtjB-17" vertex="1">
          <mxGeometry y="42" width="170" height="16" as="geometry" />
        </mxCell>
        <mxCell id="AqPOnKideAfWSkeXZtjB-22" value="text=&quot;The system shall update the vehicleâ€™s speed and speed limit data in real-time, with no delay greater than 3 second.&quot;" style="html=1;align=left;spacing=0;verticalAlign=middle;strokeColor=none;fillColor=none;whiteSpace=wrap;spacingLeft=10;" parent="AqPOnKideAfWSkeXZtjB-17" vertex="1">
          <mxGeometry y="58" width="170" height="62" as="geometry" />
        </mxCell>
        <mxCell id="AqPOnKideAfWSkeXZtjB-23" value="" style="fontStyle=1;align=center;verticalAlign=middle;childLayout=stackLayout;horizontal=1;horizontalStack=0;resizeParent=1;resizeParentMax=0;resizeLast=0;marginBottom=0;" parent="1" vertex="1">
          <mxGeometry x="420" y="180" width="170" height="120" as="geometry" />
        </mxCell>
        <mxCell id="AqPOnKideAfWSkeXZtjB-24" value="&amp;lt;&amp;lt;NF requirement&amp;gt;&amp;gt;" style="html=1;align=center;spacing=0;verticalAlign=middle;strokeColor=none;fillColor=none;whiteSpace=wrap;spacingTop=3;" parent="AqPOnKideAfWSkeXZtjB-23" vertex="1">
          <mxGeometry width="170" height="16" as="geometry" />
        </mxCell>
        <mxCell id="AqPOnKideAfWSkeXZtjB-25" value="Accuracy" style="html=1;align=center;spacing=0;verticalAlign=middle;strokeColor=none;fillColor=none;whiteSpace=wrap;fontStyle=1" parent="AqPOnKideAfWSkeXZtjB-23" vertex="1">
          <mxGeometry y="16" width="170" height="18" as="geometry" />
        </mxCell>
        <mxCell id="AqPOnKideAfWSkeXZtjB-26" value="" style="line;strokeWidth=0.25;fillColor=none;align=left;verticalAlign=middle;spacingTop=-1;spacingLeft=3;spacingRight=3;rotatable=0;labelPosition=right;points=[];portConstraint=eastwest;" parent="AqPOnKideAfWSkeXZtjB-23" vertex="1">
          <mxGeometry y="34" width="170" height="8" as="geometry" />
        </mxCell>
        <mxCell id="AqPOnKideAfWSkeXZtjB-27" value="Id=&quot;SPD-NF-1&quot;" style="html=1;align=left;spacing=0;verticalAlign=middle;strokeColor=none;fillColor=none;whiteSpace=wrap;spacingLeft=10;" parent="AqPOnKideAfWSkeXZtjB-23" vertex="1">
          <mxGeometry y="42" width="170" height="16" as="geometry" />
        </mxCell>
        <mxCell id="AqPOnKideAfWSkeXZtjB-28" value="text=&quot;The system shall provide an accurate speed reading with an error margin of no more than Â±2 km/h.&quot;" style="html=1;align=left;spacing=0;verticalAlign=middle;strokeColor=none;fillColor=none;whiteSpace=wrap;spacingLeft=10;" parent="AqPOnKideAfWSkeXZtjB-23" vertex="1">
          <mxGeometry y="58" width="170" height="62" as="geometry" />
        </mxCell>
        <mxCell id="sS0B-Nxh6AG1UYCJhc29-1" style="edgeStyle=orthogonalEdgeStyle;rounded=0;orthogonalLoop=1;jettySize=auto;html=1;entryX=0.5;entryY=0;entryDx=0;entryDy=0;endArrow=circlePlus;endFill=0;" edge="1" parent="1">
          <mxGeometry relative="1" as="geometry">
            <mxPoint x="500" y="300" as="sourcePoint" />
            <Array as="points">
              <mxPoint x="500" y="300" />
              <mxPoint x="500" y="310" />
              <mxPoint x="798" y="310" />
            </Array>
            <mxPoint x="798.13" y="340" as="targetPoint" />
          </mxGeometry>
        </mxCell>
        <mxCell id="sS0B-Nxh6AG1UYCJhc29-2" value="" style="endArrow=none;html=1;rounded=0;entryX=0.516;entryY=1;entryDx=0;entryDy=0;entryPerimeter=0;" edge="1" parent="1">
          <mxGeometry width="50" height="50" relative="1" as="geometry">
            <mxPoint x="798" y="310" as="sourcePoint" />
            <mxPoint x="798" y="300" as="targetPoint" />
          </mxGeometry>
        </mxCell>
      </root>
    </mxGraphModel>
  </diagram>
</mxfile>
